<svg width="32" height="40" viewBox="0 0 32 40" fill="none" xmlns="http://www.w3.org/2000/svg">
<path d="M15.9998 0C14.5175 0.00141371 13.096 0.591288 12.0477 1.63918C10.9994 2.68745 10.4099 4.10894 10.4082 5.59123V6.11748H6.45258C5.74997 6.11889 5.07208 6.37513 4.54478 6.83883C4.01711 7.30253 3.67605 7.94184 3.58454 8.63815L0.0240751 36.1143C-0.0830139 36.9396 0.170395 37.7705 0.71962 38.3953C1.26884 39.0202 2.06013 39.3782 2.89216 39.3782H29.108C29.9396 39.3782 30.7312 39.0202 31.2805 38.3953C31.8294 37.7705 32.0828 36.9396 31.9761 36.1143L28.4156 8.63815C28.3241 7.9419 27.9826 7.30253 27.4554 6.83883C26.9277 6.37513 26.2498 6.1189 25.5476 6.11748H21.592V5.59123C21.5902 4.10894 21.0007 2.68745 19.9521 1.63918C18.9038 0.59127 17.4827 0.00135716 16 0H15.9998ZM12.1934 5.59123C12.1934 4.23126 12.919 2.97481 14.0966 2.29478C15.2746 1.61479 16.7254 1.61479 17.9029 2.29478C19.081 2.97477 19.8065 4.23117 19.8065 5.59123V6.11748H12.1933L12.1934 5.59123ZM25.5469 7.90265C26.1029 7.90371 26.5722 8.31616 26.6447 8.8675L30.2048 36.3446C30.2454 36.6602 30.1486 36.9779 29.9383 37.2168C29.7284 37.4557 29.4255 37.5929 29.1074 37.5929H2.89158C2.42753 37.5957 2.01225 37.3048 1.85643 36.8676H20.6983C21.1914 36.8676 21.5911 36.4679 21.5911 35.9749C21.5911 35.4818 21.1914 35.0821 20.6983 35.0821H1.95777L5.35456 8.86721C5.42701 8.31586 5.89636 7.90345 6.45232 7.90236H10.4079V16.0086C9.67171 16.2889 9.11009 16.8992 8.89204 17.6559C8.67362 18.413 8.82383 19.2283 9.29707 19.8578C9.77067 20.4872 10.5129 20.8576 11.3003 20.8576C12.0881 20.8576 12.8299 20.4872 13.3036 19.8578C13.7772 19.2283 13.9274 18.4129 13.709 17.6559C13.4906 16.8992 12.9293 16.2889 12.1931 16.0086V7.90236H19.8063V16.0086C19.0701 16.2889 18.5085 16.8992 18.2905 17.6559C18.0721 18.413 18.2223 19.2283 18.6959 19.8578C19.1691 20.4872 19.9113 20.8576 20.6988 20.8576C21.4865 20.8576 22.2284 20.4872 22.702 19.8578C23.1756 19.2283 23.3258 18.4129 23.1074 17.6559C22.889 16.8992 22.3277 16.2889 21.5915 16.0086V7.90236L25.5469 7.90265ZM11.3004 17.6226C11.5923 17.6226 11.8552 17.7986 11.9669 18.068C12.0786 18.3376 12.0168 18.6479 11.8107 18.8543C11.6043 19.0604 11.294 19.1222 11.0243 19.0105C10.755 18.8989 10.579 18.6359 10.579 18.344C10.5794 17.946 10.902 17.623 11.3004 17.6226ZM20.6991 17.6226C20.9911 17.6226 21.254 17.7986 21.3657 18.068C21.4774 18.3376 21.4155 18.6479 21.2095 18.8543C21.0031 19.0604 20.6928 19.1222 20.4231 19.0105C20.1538 18.8989 19.9778 18.6359 19.9778 18.344C19.9781 17.946 20.3012 17.623 20.6991 17.6226Z" fill="black"/>
<path d="M24.0341 36.8677H25.6942C26.1872 36.8677 26.5866 36.468 26.5866 35.975C26.5866 35.4819 26.1872 35.0822 25.6942 35.0822H24.0341C23.5411 35.0822 23.1414 35.4819 23.1414 35.975C23.1414 36.468 23.5411 36.8677 24.0341 36.8677Z" fill="black"/>
</svg>
